<svg width="20" height="21" viewBox="0 0 20 21" fill="none" xmlns="http://www.w3.org/2000/svg"><mask id="mask0_26922_184895" maskUnits="userSpaceOnUse" x="0" y="0" width="20" height="21" style="mask-type: alpha;"><rect x="0.5" y="1" width="19" height="19" fill="#042CB0" stroke="#042CB0"></rect></mask><g mask="url(#mask0_26922_184895)"><line x1="2.24219" y1="13.1797" x2="16.9326" y2="13.1797" stroke="#042CB0" stroke-linecap="round" class="orange-fill"></line><rect x="2.24219" y="3.48438" width="15" height="11.6154" rx="1.69048" stroke="#042CB0" stroke-linejoin="round" class="orange-fill"></rect><rect x="5.48689" y="17.4283" width="8.91503" height="0.356601" rx="0.178301" stroke="#042CB0" stroke-width="0.356601" stroke-linejoin="round" class="orange-fill"></rect><path d="M12.4414 15.4453L13.2106 17.2915" stroke="#042CB0" stroke-linecap="round" stroke-linejoin="round" class="orange-fill"></path><path d="M7.50391 15.4453L6.73468 17.2915" stroke="#042CB0" stroke-linecap="round" stroke-linejoin="round" class="orange-fill"></path><mask id="path-7-inside-1_26922_184895" fill="white"><rect x="9.58789" y="10.1172" width="1.42641" height="2.13961" rx="0.210005"></rect></mask><rect x="9.58789" y="10.1172" width="1.42641" height="2.13961" rx="0.210005" stroke="#042CB0" stroke-width="1.42641" stroke-linejoin="round" mask="url(#path-7-inside-1_26922_184895)" class="orange-fill"></rect><mask id="path-8-inside-2_26922_184895" fill="white"><rect x="11.7266" y="7.97656" width="1.42641" height="4.27922" rx="0.210005"></rect></mask><rect x="11.7266" y="7.97656" width="1.42641" height="4.27922" rx="0.210005" stroke="#042CB0" stroke-width="1.42641" stroke-linejoin="round" mask="url(#path-8-inside-2_26922_184895)" class="orange-fill"></rect><mask id="path-9-inside-3_26922_184895" fill="white"><rect x="13.8652" y="10.1172" width="1.42641" height="2.13961" rx="0.210005"></rect></mask><rect x="13.8652" y="10.1172" width="1.42641" height="2.13961" rx="0.210005" stroke="#042CB0" stroke-width="1.42641" stroke-linejoin="round" mask="url(#path-9-inside-3_26922_184895)" class="orange-fill"></rect><circle cx="5.65932" cy="6.85659" r="1.9894" stroke="#042CB0" class="orange-fill"></circle><path d="M5.65575 5.125L5.65575 6.85792M5.65575 6.85792L7.44727 6.85792M5.65575 6.85792L4.23785 8.27581" stroke="#042CB0" stroke-linecap="round" class="orange-fill"></path><path d="M9.58789 7.59232L12.0552 5.125L14.3581 7.42784L15.8384 5.94744" stroke="#042CB0" stroke-linecap="round" class="orange-fill"></path><path d="M14.9355 5.78125H16.0059V6.90399" stroke="#042CB0" stroke-linecap="round" stroke-linejoin="round" class="orange-fill"></path><path d="M3.16992 11.5469H7.16992" stroke="#042CB0" stroke-linecap="round" class="orange-fill"></path></g></svg>