<svg width="20" height="20" viewBox="0 0 20 20" fill="none" xmlns="http://www.w3.org/2000/svg"><g clip-path="url(#clip0_6352_62401)"><g clip-path="url(#clip1_6352_62401)"><path d="M0 22.0001H7.81203V17.5211H12.1877V22.0001H19.9998V13.1584H0V22.0001ZM17.0322 14.7668H18.2043V16.7071H17.0322V14.7668ZM17.0322 17.8793H18.2043V19.8197H17.0322V17.8793ZM14.61 14.7668H15.7821V16.7071H14.61V14.7668ZM14.61 17.8793H15.7821V19.8197H14.61V17.8793ZM7.81203 14.9556H12.1877V16.1276H7.81203V14.9556ZM4.21767 14.7668H5.38973V16.7071H4.21767V14.7668ZM4.21767 17.8793H5.38973V19.8197H4.21767V17.8793ZM1.79548 14.7668H2.96755V16.7071H1.79548V14.7668ZM2.96755 17.8793V19.8197H1.79548V17.8793H2.96755Z" fill="#666666" class="orange-fill"></path><path d="M8.98438 18.6931H11.016V22.0001H8.98438V18.6931Z" fill="#666666" class="orange-fill"></path><path d="M2.7334 10.0327H17.267V11.9863H2.7334V10.0327Z" fill="#666666" class="orange-fill"></path><path d="M10.6908 6.38648H10.5864V5.38597H13.284V2H9.41434V6.38648H9.30995C7.67324 6.38648 6.27306 7.41567 5.7207 8.86059H14.28C13.7277 7.41567 12.3275 6.38648 10.6908 6.38648Z" fill="#666666" class="orange-fill"></path></g></g></svg>