<svg width="21" height="20" viewBox="0 0 21 20" fill="none" xmlns="http://www.w3.org/2000/svg"><path d="M3.27235 4.44705C3.57918 4.44705 3.82791 4.19832 3.82791 3.89149C3.82791 3.58467 3.57918 3.33594 3.27235 3.33594C2.96553 3.33594 2.7168 3.58467 2.7168 3.89149C2.7168 4.19832 2.96553 4.44705 3.27235 4.44705Z" fill="#CCCCCC"></path><path d="M5.49501 4.44705C5.80183 4.44705 6.05056 4.19832 6.05056 3.89149C6.05056 3.58467 5.80183 3.33594 5.49501 3.33594C5.18818 3.33594 4.93945 3.58467 4.93945 3.89149C4.93945 4.19832 5.18818 4.44705 5.49501 4.44705Z" fill="#CCCCCC"></path><path d="M7.71571 4.44705C8.02254 4.44705 8.27127 4.19832 8.27127 3.89149C8.27127 3.58467 8.02254 3.33594 7.71571 3.33594C7.40889 3.33594 7.16016 3.58467 7.16016 3.89149C7.16016 4.19832 7.40889 4.44705 7.71571 4.44705Z" fill="#CCCCCC"></path><path d="M18.2719 1.11328H2.71636C1.48859 1.11328 0.494141 2.10773 0.494141 3.3355V16.6688C0.494141 17.8966 1.48859 18.8911 2.71636 18.8911H18.2719C19.4997 18.8911 20.4941 17.8966 20.4941 16.6688V3.3355C20.4941 2.10773 19.4997 1.11328 18.2719 1.11328ZM18.2719 17.7799H2.71636C2.10525 17.7799 1.60525 17.2799 1.60525 16.6688V3.3355C1.60525 2.72439 2.10525 2.22439 2.71636 2.22439H18.2719C18.883 2.22439 19.383 2.72439 19.383 3.3355V5.55773H3.82747C3.52192 5.55773 3.27192 5.80773 3.27192 6.11328C3.27192 6.41884 3.52192 6.66884 3.82747 6.66884H19.383V16.6688C19.383 17.2799 18.883 17.7799 18.2719 17.7799Z" fill="#CCCCCC"></path><path d="M11.0497 4.44705H17.7164C18.0219 4.44705 18.2719 4.19705 18.2719 3.89149C18.2719 3.58594 18.0219 3.33594 17.7164 3.33594H11.0497C10.7441 3.33594 10.4941 3.58594 10.4941 3.89149C10.4941 4.19705 10.7441 4.44705 11.0497 4.44705Z" fill="#CCCCCC"></path><path d="M11.0158 8.51243C10.6436 8.28465 10.1881 8.27354 9.76584 8.50132L7.79918 9.74021C7.6714 9.80687 7.56029 9.90132 7.4714 10.0069H5.68251C4.96029 10.0069 4.37695 10.5847 4.37695 11.2902V13.168C4.37695 13.8735 4.96029 14.4513 5.68251 14.4513H7.4714C7.56029 14.5569 7.66584 14.6458 7.76029 14.6958L9.79362 15.9735C9.97695 16.0735 10.177 16.118 10.3714 16.118C10.5881 16.118 10.8103 16.0569 11.0047 15.9402C11.3714 15.718 11.5936 15.3291 11.5936 14.9013V9.55132C11.5936 9.12354 11.3714 8.73465 11.0047 8.51243H11.0158ZM5.49362 13.1624V11.2847C5.49362 11.1902 5.58251 11.1124 5.68806 11.1124H7.16029V13.3347H5.68806C5.58251 13.3347 5.49362 13.2569 5.49362 13.1624ZM10.4936 14.8958C10.4936 14.8958 10.4936 14.9513 10.4436 14.9791C10.4214 14.9902 10.377 15.0069 10.3603 15.0013L8.36029 13.7458L8.3214 13.718L8.2714 10.8013L8.28806 10.7513L10.3214 9.45687C10.3214 9.45687 10.3603 9.44021 10.3825 9.44021C10.4103 9.44021 10.4325 9.45132 10.4436 9.45687C10.4936 9.48465 10.4936 9.52909 10.4936 9.54021V14.8902V14.8958Z" fill="#CCCCCC"></path><path d="M14.9988 8.33655C14.771 8.131 14.421 8.15322 14.2155 8.38099C14.0099 8.60877 14.0321 8.95877 14.2599 9.16433C15.1321 9.94211 15.6377 11.0588 15.6377 12.2199C15.6377 13.381 15.1377 14.5032 14.2599 15.281C14.0321 15.4866 14.0099 15.8366 14.2155 16.0643C14.3266 16.1866 14.4766 16.2532 14.6321 16.2532C14.7655 16.2532 14.8932 16.2088 14.9988 16.1143C16.1099 15.1254 16.7488 13.7088 16.7488 12.2199C16.7488 10.731 16.1099 9.31988 14.9988 8.33099V8.33655Z" fill="#CCCCCC"></path><path d="M13.3277 9.42362C13.0889 9.22917 12.7389 9.26251 12.5444 9.49584C12.35 9.72917 12.3833 10.0847 12.6166 10.2792C13.1944 10.7625 13.5277 11.4681 13.5277 12.2236C13.5277 12.9792 13.1944 13.6903 12.6111 14.1736C12.3777 14.3681 12.3444 14.7181 12.5389 14.9569C12.65 15.0903 12.8055 15.1569 12.9666 15.1569C13.0889 15.1569 13.2166 15.1125 13.3222 15.0292C14.1611 14.3347 14.6388 13.3125 14.6388 12.2236C14.6388 11.1347 14.1611 10.1181 13.3277 9.42362Z" fill="#CCCCCC"></path></svg>