<svg width="20" height="30" viewBox="0 0 16 12" fill="none" xmlns="http://www.w3.org/2000/svg">
<path fill-rule="evenodd" clip-rule="evenodd" d="M10.77 3.33L10.5 4L9.34 6.94L8.77 8.38L7.33 12H9.11L9.84 10.03H13.42L14.16 12H16L12.57 3.33H10.77ZM10.62 7.93L10.38 8.56H12.89L11.63 5.21L10.62 7.93ZM9.52 2.84L9.62 2.65H6.42V0H4.92V2.65H0.55V4H4.32C3.33354 5.8596 1.83422 7.39711 0 8.43C0.33 8.71 0.81 9.23 1.05 9.59C2.55 8.68 3.9 7.23 4.93 5.57V10.67H6.42V5.52C6.82 6.15333 7.26333 6.75333 7.75 7.32L8.32 5.89C7.81289 5.30153 7.36412 4.66521 6.98 3.99H9.07L9.52 2.84Z" fill="#FFF9F9"/>
</svg>
